<mxfile host="app.diagrams.net" modified="2023-08-19T04:26:53.547Z" agent="Mozilla/5.0 (Windows NT 10.0; Win64; x64) AppleWebKit/537.36 (KHTML, like Gecko) Chrome/115.0.0.0 Safari/537.36" etag="eyFKQr3O9aheTO4144up" version="21.6.8" type="github">
  <diagram id="R2lEEEUBdFMjLlhIrx00" name="Page-1">
    <mxGraphModel dx="765" dy="388" grid="1" gridSize="10" guides="1" tooltips="1" connect="1" arrows="1" fold="1" page="1" pageScale="1" pageWidth="850" pageHeight="1100" math="0" shadow="0" extFonts="Permanent Marker^https://fonts.googleapis.com/css?family=Permanent+Marker">
      <root>
        <mxCell id="0" />
        <mxCell id="1" parent="0" />
        <mxCell id="ZE84o9w6Z-9fWHzd7U6F-5" style="edgeStyle=orthogonalEdgeStyle;rounded=0;orthogonalLoop=1;jettySize=auto;html=1;exitX=0.5;exitY=1;exitDx=0;exitDy=0;endArrow=none;endFill=0;" edge="1" parent="1" source="ZE84o9w6Z-9fWHzd7U6F-1" target="ZE84o9w6Z-9fWHzd7U6F-4">
          <mxGeometry relative="1" as="geometry" />
        </mxCell>
        <mxCell id="ZE84o9w6Z-9fWHzd7U6F-6" style="rounded=0;orthogonalLoop=1;jettySize=auto;html=1;exitX=0;exitY=0.5;exitDx=0;exitDy=0;entryX=1;entryY=0.5;entryDx=0;entryDy=0;endArrow=none;endFill=0;" edge="1" parent="1" source="ZE84o9w6Z-9fWHzd7U6F-1" target="ZE84o9w6Z-9fWHzd7U6F-8">
          <mxGeometry relative="1" as="geometry">
            <mxPoint x="250" y="50" as="targetPoint" />
          </mxGeometry>
        </mxCell>
        <mxCell id="ZE84o9w6Z-9fWHzd7U6F-24" style="edgeStyle=orthogonalEdgeStyle;rounded=0;orthogonalLoop=1;jettySize=auto;html=1;endArrow=none;endFill=0;entryX=0;entryY=0.5;entryDx=0;entryDy=0;exitX=1;exitY=0.5;exitDx=0;exitDy=0;" edge="1" parent="1" source="ZE84o9w6Z-9fWHzd7U6F-1" target="ZE84o9w6Z-9fWHzd7U6F-28">
          <mxGeometry relative="1" as="geometry">
            <mxPoint x="360" y="80" as="sourcePoint" />
            <mxPoint x="500" y="70" as="targetPoint" />
          </mxGeometry>
        </mxCell>
        <mxCell id="ZE84o9w6Z-9fWHzd7U6F-1" value="Persona" style="whiteSpace=wrap;html=1;align=center;" vertex="1" parent="1">
          <mxGeometry x="310" y="40" width="100" height="40" as="geometry" />
        </mxCell>
        <mxCell id="ZE84o9w6Z-9fWHzd7U6F-3" value="" style="edgeStyle=orthogonalEdgeStyle;rounded=0;orthogonalLoop=1;jettySize=auto;html=1;endArrow=none;endFill=0;" edge="1" parent="1" source="ZE84o9w6Z-9fWHzd7U6F-2" target="ZE84o9w6Z-9fWHzd7U6F-1">
          <mxGeometry relative="1" as="geometry" />
        </mxCell>
        <mxCell id="ZE84o9w6Z-9fWHzd7U6F-2" value="pasaporte" style="ellipse;whiteSpace=wrap;html=1;align=center;fontStyle=4;" vertex="1" parent="1">
          <mxGeometry x="360" y="120" width="100" height="40" as="geometry" />
        </mxCell>
        <mxCell id="ZE84o9w6Z-9fWHzd7U6F-4" value="nombre_completo&lt;br&gt;" style="ellipse;whiteSpace=wrap;html=1;align=center;" vertex="1" parent="1">
          <mxGeometry x="240" y="120" width="100" height="40" as="geometry" />
        </mxCell>
        <mxCell id="ZE84o9w6Z-9fWHzd7U6F-9" style="edgeStyle=orthogonalEdgeStyle;rounded=0;orthogonalLoop=1;jettySize=auto;html=1;exitX=0.5;exitY=1;exitDx=0;exitDy=0;endArrow=none;endFill=0;" edge="1" parent="1" source="ZE84o9w6Z-9fWHzd7U6F-8" target="ZE84o9w6Z-9fWHzd7U6F-10">
          <mxGeometry relative="1" as="geometry">
            <mxPoint x="210" y="130" as="targetPoint" />
          </mxGeometry>
        </mxCell>
        <mxCell id="ZE84o9w6Z-9fWHzd7U6F-12" style="edgeStyle=orthogonalEdgeStyle;rounded=0;orthogonalLoop=1;jettySize=auto;html=1;endArrow=none;endFill=0;" edge="1" parent="1" source="ZE84o9w6Z-9fWHzd7U6F-8" target="ZE84o9w6Z-9fWHzd7U6F-13">
          <mxGeometry relative="1" as="geometry">
            <mxPoint x="260" y="130" as="targetPoint" />
          </mxGeometry>
        </mxCell>
        <mxCell id="ZE84o9w6Z-9fWHzd7U6F-16" style="edgeStyle=orthogonalEdgeStyle;rounded=0;orthogonalLoop=1;jettySize=auto;html=1;endArrow=none;endFill=0;" edge="1" parent="1" source="ZE84o9w6Z-9fWHzd7U6F-8" target="ZE84o9w6Z-9fWHzd7U6F-17">
          <mxGeometry relative="1" as="geometry">
            <mxPoint x="130" y="110" as="targetPoint" />
          </mxGeometry>
        </mxCell>
        <mxCell id="ZE84o9w6Z-9fWHzd7U6F-19" style="edgeStyle=orthogonalEdgeStyle;rounded=0;orthogonalLoop=1;jettySize=auto;html=1;endArrow=none;endFill=0;" edge="1" parent="1" source="ZE84o9w6Z-9fWHzd7U6F-8" target="ZE84o9w6Z-9fWHzd7U6F-20">
          <mxGeometry relative="1" as="geometry">
            <mxPoint x="150" y="30" as="targetPoint" />
          </mxGeometry>
        </mxCell>
        <mxCell id="ZE84o9w6Z-9fWHzd7U6F-8" value="direccion&lt;br&gt;" style="ellipse;shape=doubleEllipse;margin=3;whiteSpace=wrap;html=1;align=center;" vertex="1" parent="1">
          <mxGeometry x="160" y="40" width="100" height="40" as="geometry" />
        </mxCell>
        <mxCell id="ZE84o9w6Z-9fWHzd7U6F-10" value="calle" style="ellipse;whiteSpace=wrap;html=1;align=center;" vertex="1" parent="1">
          <mxGeometry x="75" y="120" width="60" height="20" as="geometry" />
        </mxCell>
        <mxCell id="ZE84o9w6Z-9fWHzd7U6F-13" value="altura" style="ellipse;whiteSpace=wrap;html=1;align=center;" vertex="1" parent="1">
          <mxGeometry x="120" y="140" width="60" height="20" as="geometry" />
        </mxCell>
        <mxCell id="ZE84o9w6Z-9fWHzd7U6F-17" value="localidad" style="ellipse;whiteSpace=wrap;html=1;align=center;" vertex="1" parent="1">
          <mxGeometry x="60" y="70" width="60" height="30" as="geometry" />
        </mxCell>
        <mxCell id="ZE84o9w6Z-9fWHzd7U6F-20" value="pais" style="ellipse;whiteSpace=wrap;html=1;align=center;" vertex="1" parent="1">
          <mxGeometry x="55" y="40" width="70" height="20" as="geometry" />
        </mxCell>
        <mxCell id="ZE84o9w6Z-9fWHzd7U6F-26" value="nombre" style="ellipse;whiteSpace=wrap;html=1;align=center;fontFamily=Helvetica;fontSize=11;fontColor=default;" vertex="1" parent="1">
          <mxGeometry x="595" y="100" width="70" height="30" as="geometry" />
        </mxCell>
        <mxCell id="ZE84o9w6Z-9fWHzd7U6F-34" style="edgeStyle=orthogonalEdgeStyle;shape=link;rounded=0;orthogonalLoop=1;jettySize=auto;html=1;exitX=1;exitY=0.5;exitDx=0;exitDy=0;entryX=0;entryY=0.5;entryDx=0;entryDy=0;labelBackgroundColor=default;strokeColor=default;fontFamily=Helvetica;fontSize=11;fontColor=default;endArrow=none;endFill=0;" edge="1" parent="1" source="ZE84o9w6Z-9fWHzd7U6F-28" target="ZE84o9w6Z-9fWHzd7U6F-30">
          <mxGeometry relative="1" as="geometry" />
        </mxCell>
        <mxCell id="ZE84o9w6Z-9fWHzd7U6F-28" value="simpatiza" style="shape=rhombus;double=1;perimeter=rhombusPerimeter;whiteSpace=wrap;html=1;align=center;fontFamily=Helvetica;fontSize=11;fontColor=default;" vertex="1" parent="1">
          <mxGeometry x="470" y="30" width="70" height="60" as="geometry" />
        </mxCell>
        <mxCell id="ZE84o9w6Z-9fWHzd7U6F-36" style="edgeStyle=orthogonalEdgeStyle;shape=connector;rounded=0;orthogonalLoop=1;jettySize=auto;html=1;entryX=0.5;entryY=0;entryDx=0;entryDy=0;labelBackgroundColor=default;strokeColor=default;fontFamily=Helvetica;fontSize=11;fontColor=default;endArrow=none;endFill=0;" edge="1" parent="1" source="ZE84o9w6Z-9fWHzd7U6F-30" target="ZE84o9w6Z-9fWHzd7U6F-26">
          <mxGeometry relative="1" as="geometry" />
        </mxCell>
        <mxCell id="ZE84o9w6Z-9fWHzd7U6F-30" value="Equipo" style="shape=ext;margin=3;double=1;whiteSpace=wrap;html=1;align=center;fontFamily=Helvetica;fontSize=11;fontColor=default;" vertex="1" parent="1">
          <mxGeometry x="580" y="40" width="100" height="40" as="geometry" />
        </mxCell>
        <mxCell id="ZE84o9w6Z-9fWHzd7U6F-42" style="edgeStyle=orthogonalEdgeStyle;shape=connector;rounded=0;orthogonalLoop=1;jettySize=auto;html=1;exitX=0;exitY=0.5;exitDx=0;exitDy=0;labelBackgroundColor=default;strokeColor=default;fontFamily=Helvetica;fontSize=11;fontColor=default;endArrow=none;endFill=0;entryX=1;entryY=0.5;entryDx=0;entryDy=0;" edge="1" parent="1" source="ZE84o9w6Z-9fWHzd7U6F-37" target="ZE84o9w6Z-9fWHzd7U6F-46">
          <mxGeometry relative="1" as="geometry">
            <mxPoint x="269.9999983520629" y="240" as="targetPoint" />
          </mxGeometry>
        </mxCell>
        <mxCell id="ZE84o9w6Z-9fWHzd7U6F-44" style="edgeStyle=orthogonalEdgeStyle;shape=connector;rounded=0;orthogonalLoop=1;jettySize=auto;html=1;exitX=0.25;exitY=1;exitDx=0;exitDy=0;labelBackgroundColor=default;strokeColor=default;fontFamily=Helvetica;fontSize=11;fontColor=default;endArrow=none;endFill=0;entryX=1;entryY=0.5;entryDx=0;entryDy=0;" edge="1" parent="1" source="ZE84o9w6Z-9fWHzd7U6F-37" target="ZE84o9w6Z-9fWHzd7U6F-48">
          <mxGeometry relative="1" as="geometry">
            <mxPoint x="315" y="290" as="targetPoint" />
            <Array as="points">
              <mxPoint x="310" y="260" />
              <mxPoint x="310" y="290" />
            </Array>
          </mxGeometry>
        </mxCell>
        <mxCell id="ZE84o9w6Z-9fWHzd7U6F-50" style="edgeStyle=orthogonalEdgeStyle;shape=connector;rounded=0;orthogonalLoop=1;jettySize=auto;html=1;exitX=0.25;exitY=1;exitDx=0;exitDy=0;labelBackgroundColor=default;strokeColor=default;fontFamily=Helvetica;fontSize=11;fontColor=default;endArrow=none;endFill=0;" edge="1" parent="1" source="ZE84o9w6Z-9fWHzd7U6F-37" target="ZE84o9w6Z-9fWHzd7U6F-49">
          <mxGeometry relative="1" as="geometry" />
        </mxCell>
        <mxCell id="ZE84o9w6Z-9fWHzd7U6F-37" value="APARATO" style="whiteSpace=wrap;html=1;align=center;fontFamily=Helvetica;fontSize=11;fontColor=default;" vertex="1" parent="1">
          <mxGeometry x="310" y="220" width="100" height="40" as="geometry" />
        </mxCell>
        <mxCell id="ZE84o9w6Z-9fWHzd7U6F-46" value="marca&lt;br&gt;" style="ellipse;whiteSpace=wrap;html=1;align=center;fontFamily=Helvetica;fontSize=11;fontColor=default;" vertex="1" parent="1">
          <mxGeometry x="210" y="225" width="70" height="30" as="geometry" />
        </mxCell>
        <mxCell id="ZE84o9w6Z-9fWHzd7U6F-48" value="modelo&lt;br&gt;" style="ellipse;whiteSpace=wrap;html=1;align=center;fontFamily=Helvetica;fontSize=11;fontColor=default;" vertex="1" parent="1">
          <mxGeometry x="210" y="270" width="70" height="40" as="geometry" />
        </mxCell>
        <mxCell id="ZE84o9w6Z-9fWHzd7U6F-49" value="tipo" style="ellipse;shape=doubleEllipse;margin=3;whiteSpace=wrap;html=1;align=center;fontFamily=Helvetica;fontSize=11;fontColor=default;" vertex="1" parent="1">
          <mxGeometry x="320" y="300" width="60" height="30" as="geometry" />
        </mxCell>
      </root>
    </mxGraphModel>
  </diagram>
</mxfile>
